# xmcd
#
# Track frame offsets:
#	150
#	22942
#	35877
#	54672
#	71519
#	89070
#	116220
#	140660
#	158852
#	178170
#	197084
#	218575
#	235138
#	256496
#	280308
#	300906
#	314760
#	325871
#
# Disc length: 4542 seconds
#
# Revision: 0
# Processed by: cddbd v1.5.2PL0 Copyright (c) Steve Scherf et al.
# Submitted via: dBpowerAMP V4.0
#
DISCID=1211bc12
DTITLE=Suzan Kardes - Makyaj Odasi Sarkilari
DYEAR=1900
DGENRE=Various
TTITLE0=Suzan Kardes - Gelem Gelem
TTITLE1=Nejat Isler - Hanci
TTITLE2=Demet Akbag - Cayuriye
TTITLE3=Yasemin Yalcin - Taht Kurmussun Kalbime
TTITLE4=Cem Yilmaz - Ah Bu Gonul Sarkilari
TTITLE5=Halil Ergun - Kirmizi Gulun Ali Var
TTITLE6=Haluk Bilginer - Sen de Basini Alip Gitme Ne Olur
TTITLE7=Olgun Simsek - Ellerim Bombos
TTITLE8=Oya Basar - Dom Dom Kursunu
TTITLE9=Yilmaz Erdogan - Telli Turnam
TTITLE10=Meltem Cumbul - Beyaz Giyme Soz Olur
TTITLE11=Sebnem Donmez - Yovano Yovanke
TTITLE12=Ozgu Namal - Saoroma - Ederlezi
TTITLE13=Guven Kirac - Neden Saclarin Beyazlamis Arkadas
TTITLE14=Erkan Can - Kucelere Su Serpmisem
TTITLE15=Fikret Kuskan - Pikmaspari
TTITLE16=Sezen Aksu - Egreti Gelin
TTITLE17=Suzan Kardes - Huysuzsun... Arkamdan Tas Tas
EXTD=
EXTT0=
EXTT1=
EXTT2=
EXTT3=
EXTT4=
EXTT5=
EXTT6=
EXTT7=
EXTT8=
EXTT9=
EXTT10=
EXTT11=
EXTT12=
EXTT13=
EXTT14=
EXTT15=
EXTT16=
EXTT17=
PLAYORDER=
